<mxfile host="65bd71144e">
    <diagram id="6-ZUoJyyHq1mWzmdwojJ" name="Page-1">
        <mxGraphModel dx="637" dy="483" grid="1" gridSize="10" guides="1" tooltips="1" connect="1" arrows="1" fold="1" page="1" pageScale="1" pageWidth="850" pageHeight="1100" math="0" shadow="0">
            <root>
                <mxCell id="0"/>
                <mxCell id="1" parent="0"/>
                <mxCell id="2" value="" style="rounded=0;whiteSpace=wrap;html=1;fillColor=#dae8fc;strokeColor=#6c8ebf;" parent="1" vertex="1">
                    <mxGeometry x="20" y="200" width="160" height="200" as="geometry"/>
                </mxCell>
                <mxCell id="3" value="Stack" style="text;html=1;align=center;verticalAlign=middle;resizable=0;points=[];autosize=1;strokeColor=none;fillColor=none;" parent="1" vertex="1">
                    <mxGeometry x="70" y="170" width="50" height="30" as="geometry"/>
                </mxCell>
                <mxCell id="4" value="" style="rounded=0;whiteSpace=wrap;html=1;fillColor=#dae8fc;strokeColor=#6c8ebf;" parent="1" vertex="1">
                    <mxGeometry x="285" y="200" width="245" height="160" as="geometry"/>
                </mxCell>
                <mxCell id="5" value="Heap" style="text;html=1;align=center;verticalAlign=middle;resizable=0;points=[];autosize=1;strokeColor=none;fillColor=none;" parent="1" vertex="1">
                    <mxGeometry x="285" y="170" width="50" height="30" as="geometry"/>
                </mxCell>
                <mxCell id="6" value="name = &quot;pw&quot;" style="rounded=0;whiteSpace=wrap;html=1;fillColor=#fff2cc;strokeColor=#d6b656;" parent="1" vertex="1">
                    <mxGeometry x="40" y="350" width="100" height="20" as="geometry"/>
                </mxCell>
                <mxCell id="8" value="age = 20" style="rounded=0;whiteSpace=wrap;html=1;fillColor=#fff2cc;strokeColor=#d6b656;" parent="1" vertex="1">
                    <mxGeometry x="40" y="320" width="100" height="20" as="geometry"/>
                </mxCell>
                <mxCell id="17" style="edgeStyle=none;html=1;" parent="1" source="9" target="11" edge="1">
                    <mxGeometry relative="1" as="geometry">
                        <Array as="points">
                            <mxPoint x="210" y="250"/>
                        </Array>
                    </mxGeometry>
                </mxCell>
                <mxCell id="9" value="user" style="rounded=0;whiteSpace=wrap;html=1;fillColor=#fff2cc;strokeColor=#d6b656;" parent="1" vertex="1">
                    <mxGeometry x="40" y="280" width="100" height="30" as="geometry"/>
                </mxCell>
                <mxCell id="11" value="{&lt;div&gt;&lt;span style=&quot;white-space: pre;&quot;&gt;&#x9;&lt;/span&gt;userName = &quot;SriDarsan &quot;&lt;/div&gt;&lt;div&gt;&lt;span style=&quot;white-space: pre;&quot;&gt;&#x9;&lt;/span&gt;age = 22&lt;/div&gt;&lt;div&gt;}&lt;/div&gt;" style="rounded=0;whiteSpace=wrap;html=1;align=left;fillColor=#f5f5f5;fontColor=#333333;strokeColor=#666666;" parent="1" vertex="1">
                    <mxGeometry x="302.5" y="210" width="210" height="70" as="geometry"/>
                </mxCell>
                <mxCell id="15" value="user2 = user" style="rounded=0;whiteSpace=wrap;html=1;fillColor=#fff2cc;strokeColor=#d6b656;" parent="1" vertex="1">
                    <mxGeometry x="40" y="220" width="112.5" height="30" as="geometry"/>
                </mxCell>
                <mxCell id="16" style="edgeStyle=none;html=1;exitX=1;exitY=0.5;exitDx=0;exitDy=0;entryX=-0.007;entryY=0.357;entryDx=0;entryDy=0;entryPerimeter=0;" parent="1" source="15" target="11" edge="1">
                    <mxGeometry relative="1" as="geometry">
                        <mxPoint x="290" y="235" as="targetPoint"/>
                    </mxGeometry>
                </mxCell>
            </root>
        </mxGraphModel>
    </diagram>
</mxfile>